<?xml version="1.0" encoding="iso-8859-1"?>
<!-- Generator: Adobe Illustrator 19.0.0, SVG Export Plug-In . SVG Version: 6.00 Build 0)  -->
<svg xmlns="http://www.w3.org/2000/svg" xmlns:xlink="http://www.w3.org/1999/xlink" version="1.1" id="Layer_1" x="0px" y="0px" viewBox="0 0 512 512" style="enable-background:new 0 0 512 512;" xml:space="preserve" width="512px" height="512px">
<g transform="translate(0 -1)">
	<g>
		<g>
			<path d="M21.333,150.333H64c19.02,0,37.265,4.97,53.357,14.283c10.198,5.901,23.248,2.419,29.15-7.779s2.419-23.248-7.779-29.15     c-22.542-13.045-48.15-20.021-74.728-20.021H21.333C9.551,107.667,0,117.218,0,129C0,140.782,9.551,150.333,21.333,150.333z" fill="#FFFFFF"/>
			<path d="M320,150.333h42.667v64c0,17.888,20.692,27.833,34.66,16.659l106.667-85.333c10.675-8.54,10.675-24.777,0-33.317     L397.327,27.008c-13.968-11.175-34.66-1.23-34.66,16.659v64H320c-82.481,0-149.333,66.853-149.333,149.333     c0,58.917-47.75,106.667-106.667,106.667H21.333C9.551,363.667,0,373.218,0,385s9.551,21.333,21.333,21.333H64     c82.481,0,149.333-66.853,149.333-149.333C213.333,198.083,261.083,150.333,320,150.333z M405.333,88.053L456.517,129     l-51.183,40.947V88.053z" fill="#FFFFFF"/>
			<path d="M503.994,368.341l-106.667-85.333c-13.968-11.175-34.66-1.23-34.66,16.659v64.011h-42.669     c-21.273,0-41.606-6.244-58.959-17.771c-9.814-6.519-23.055-3.847-29.574,5.967c-6.519,9.814-3.847,23.055,5.967,29.574     c24.291,16.135,52.822,24.896,82.566,24.896h42.669v63.989c0,17.888,20.692,27.833,34.66,16.659l106.667-85.333     C514.669,393.118,514.669,376.882,503.994,368.341z M405.333,425.947v-81.893L456.517,385L405.333,425.947z" fill="#FFFFFF"/>
		</g>
	</g>
</g>
<g>
</g>
<g>
</g>
<g>
</g>
<g>
</g>
<g>
</g>
<g>
</g>
<g>
</g>
<g>
</g>
<g>
</g>
<g>
</g>
<g>
</g>
<g>
</g>
<g>
</g>
<g>
</g>
<g>
</g>
</svg>
