<?xml version="1.0" encoding="iso-8859-1"?>
<!-- Generator: Adobe Illustrator 19.0.0, SVG Export Plug-In . SVG Version: 6.00 Build 0)  -->
<svg xmlns="http://www.w3.org/2000/svg" xmlns:xlink="http://www.w3.org/1999/xlink" version="1.1" id="Capa_1" x="0px" y="0px" viewBox="0 0 58.999 58.999" style="enable-background:new 0 0 58.999 58.999;" xml:space="preserve" width="512px" height="512px">
<g>
	<path d="M19.5,14.02c0.512,0,1.023-0.195,1.414-0.586l6.606-6.606v32.172c0,1.104,0.896,2,2,2s2-0.896,2-2V6.827l6.565,6.565   c0.781,0.781,2.047,0.781,2.828,0s0.781-2.047,0-2.828l-9.978-9.978c-0.093-0.094-0.196-0.177-0.307-0.251   c-0.047-0.032-0.099-0.053-0.148-0.081c-0.065-0.036-0.127-0.075-0.196-0.103c-0.065-0.027-0.133-0.042-0.2-0.062   c-0.058-0.017-0.113-0.04-0.173-0.051c-0.258-0.052-0.525-0.052-0.783,0c-0.06,0.012-0.115,0.034-0.173,0.051   c-0.067,0.02-0.135,0.035-0.2,0.062c-0.069,0.028-0.131,0.067-0.196,0.103c-0.049,0.027-0.101,0.049-0.148,0.081   c-0.11,0.074-0.213,0.157-0.307,0.251L18.085,10.606c-0.781,0.781-0.781,2.047,0,2.828C18.476,13.824,18.988,14.02,19.5,14.02z" fill="#a1a1a1"/>
	<path d="M33.5,15.999v23c0,2.209-1.791,4-4,4s-4-1.791-4-4v-23h-18v43h44v-43H33.5z" fill="#a1a1a1"/>
</g>
<g>
</g>
<g>
</g>
<g>
</g>
<g>
</g>
<g>
</g>
<g>
</g>
<g>
</g>
<g>
</g>
<g>
</g>
<g>
</g>
<g>
</g>
<g>
</g>
<g>
</g>
<g>
</g>
<g>
</g>
</svg>
